<svg width="1440" height="675" viewBox="0 0 1440 675" fill="none" xmlns="http://www.w3.org/2000/svg">
<path d="M-205.805 576.845C-208.247 553.246 -187.146 526.061 -175.076 508.855C-129.073 443.28 -77.8087 386.065 2.77231 365.194C108.214 337.884 226.607 342.956 330.427 374.029C503.91 425.951 653.99 533.391 824.791 592.018C1083.21 680.719 1363.74 697.887 1630.87 638.496C1771.3 607.275 1860.03 571.38 1978.88 492.338C2098.6 412.722 2179.36 329.493 2280.42 227.487C2398.02 108.781 2518.11 -13.9594 2620.17 -146.839C2628 -157.03 2645.35 -179.798 2652.82 -194.47C2657.24 -203.155 2651.68 -200.102 2646.29 -201" stroke="#716087" stroke-width="3" stroke-linecap="round"/>
</svg>
